HIERARCHY
ROOT Hip
{
  OFFSET 0.0 0.0 0.0
  CHANNELS 6 Xposition Yposition Zposition Xrotation Yrotation Zrotation
  JOINT LowerSpine
  {
    OFFSET 0.0 0.061367 -0.03653
    CHANNELS 3 Xrotation Yrotation Zrotation
    JOINT MiddleSpine
    {
      OFFSET 0.0 0.056002 0.002633
      CHANNELS 3 Xrotation Yrotation Zrotation
      JOINT Chest
      {
        OFFSET 0.0 0.069296 -0.013882
        CHANNELS 3 Xrotation Yrotation Zrotation
        JOINT Neck
        {
          OFFSET 0.0 0.156156 -0.002923
          CHANNELS 3 Xrotation Yrotation Zrotation
          JOINT Head
          {
            OFFSET 0.0 0.088183 0.023986
            CHANNELS 3 Xrotation Yrotation Zrotation
            End Site
            {
              OFFSET 1e-06 0.123215 0.003678
            }
          }
        }
        JOINT LClavicle
        {
          OFFSET 0.014189 0.150698 0.046467
          CHANNELS 3 Xrotation Yrotation Zrotation
          JOINT LShoulder
          {
            OFFSET 0.082893 0.021616 -0.034976
            CHANNELS 3 Xrotation Yrotation Zrotation
            JOINT LForearm
            {
              OFFSET 0.195645 -0.000695 -0.001695
              CHANNELS 3 Xrotation Yrotation Zrotation
              JOINT LHand
              {
                OFFSET 0.163209 0.000474 -0.000977
                CHANNELS 3 Xrotation Yrotation Zrotation
                End Site
                {
                  OFFSET 0.0 0.006864 0.0
                }
              }
            }
          }
        }
        JOINT RClavicle
        {
          OFFSET -0.014189 0.150698 0.046467
          CHANNELS 3 Xrotation Yrotation Zrotation
          JOINT RShoulder
          {
            OFFSET -0.082908 0.021619 -0.034982
            CHANNELS 3 Xrotation Yrotation Zrotation
            JOINT RForearm
            {
              OFFSET -0.195645 -0.000695 -0.001695
              CHANNELS 3 Xrotation Yrotation Zrotation
              JOINT RHand
              {
                OFFSET -0.163209 0.000474 -0.000977
                CHANNELS 3 Xrotation Yrotation Zrotation
                End Site
                {
                  OFFSET 0.0 0.006864 0.0
                }
              }
            }
          }
        }
      }
    }
  }
  JOINT RThigh
  {
    OFFSET -0.072558 0.02774 -0.005953
    CHANNELS 3 Xrotation Yrotation Zrotation
    JOINT RShin
    {
      OFFSET -0.005253 -0.285537 0.0
      CHANNELS 3 Xrotation Yrotation Zrotation
      JOINT RFoot
      {
        OFFSET 0.0 -0.28038 0.0
        CHANNELS 3 Xrotation Yrotation Zrotation
        JOINT RToe
        {
          OFFSET 0.0 -0.030816 0.064441
          CHANNELS 3 Xrotation Yrotation Zrotation
          End Site
          {
            OFFSET 0.0 0.0 0.043231
          }
        }
      }
    }
  }
  JOINT LThigh
  {
    OFFSET 0.072557 0.027741 -0.005953
    CHANNELS 3 Xrotation Yrotation Zrotation
    JOINT LShin
    {
      OFFSET 0.005253 -0.285539 0.0
      CHANNELS 3 Xrotation Yrotation Zrotation
      JOINT LFoot
      {
        OFFSET 0.0 -0.28038 0.0
        CHANNELS 3 Xrotation Yrotation Zrotation
        JOINT LToe
        {
          OFFSET 0.0 -0.030816 0.064441
          CHANNELS 3 Xrotation Yrotation Zrotation
          End Site
          {
            OFFSET 0.0 0.0 0.043231
          }
        }
      }
    }
  }
}
MOTION
Frames: 12
Frame Time: 0.03333333333333333
0.131814 0.565237 1.568678 10.027314 -33.601349 2.196395 -0.2625 -0.412562 -0.25834 -0.960418 -0.543127 1.165792 -7.439783 -6.350537 2.486207 -1.400868 0.12544 -0.316545 0.012164 -0.004398 -0.038945 0.991318 0.375831 -14.465324 16.969847 -35.99799 -53.878922 11.676359 -22.684286 -1.714363 0.057972 0.120389 -0.061694 -0.054729 0.189248 12.711036 25.731617 30.341665 57.104069 5.284457 15.626725 2.668211 0.152355 -0.26736 -0.001489 -7.179861 -11.266729 5.955142 4.226154 -6.200351 1.461954 -1.44543 2.337326 0.448421 0.031679 0.253988 0.047974 -12.589987 -5.393692 3.095882 30.596802 -0.885801 -1.024282 -1.703812 0.015647 0.239606 -0.109945 -0.021633 0.018756 
0.112587 0.565662 1.576118 9.285538 -35.309258 1.327139 -0.207643 -0.367687 -0.148583 -0.845327 -0.468191 1.122983 -7.714382 -5.747083 1.717491 -1.251547 0.200845 -0.210617 0.030172 -0.060318 -0.030175 0.864748 0.126832 -14.527744 17.547487 -36.171776 -54.671322 12.169293 -19.540501 -1.394346 0.071606 0.145251 -0.076246 -0.026945 0.346153 12.558902 24.164845 31.555048 56.221001 4.980321 15.366392 1.929144 0.113057 -0.288457 -0.007947 -3.710368 -9.951124 6.362306 2.334415 -5.612476 1.189087 -1.988051 2.155076 0.344174 -0.001939 0.268547 0.084225 -14.99203 -6.42263 3.331348 30.621767 -1.952012 -0.595639 -1.449513 0.138664 0.383305 -0.020054 -0.05334 -0.002204 
0.089611 0.563962 1.580086 8.822986 -40.227142 2.351956 -0.148392 -0.269601 -0.091288 -0.82709 -0.335571 0.964033 -8.604278 -5.039123 1.11489 -1.019766 0.246167 -0.142673 0.03934 -0.067387 -0.007581 0.689234 0.061171 -14.402916 18.337582 -35.036457 -56.407185 11.614 -17.199625 -1.554693 0.070301 0.137086 -0.071193 0.021638 0.508232 12.41686 22.351734 31.289736 56.089363 4.101215 15.097647 1.445887 0.11985 -0.297767 -0.007765 -0.623544 -7.938766 6.730409 0.573677 -4.628387 0.868675 -2.530411 2.070815 0.339858 -0.043883 0.277546 0.101608 -17.136393 -7.000836 2.314106 27.55485 -3.171949 0.306643 -1.240559 0.213375 0.42602 0.040911 -0.061941 -0.015381 
0.076639 0.564579 1.582079 8.774593 -48.396389 4.406104 -0.145974 -0.152048 -0.038065 -0.900879 -0.337064 0.838371 -8.515326 -4.565075 1.244722 -0.921969 0.275714 -0.160755 0.033352 -0.06878 0.013411 0.456206 -0.113064 -14.4251 18.664951 -34.001713 -58.528172 10.728629 -16.065369 -1.991502 0.071764 0.136132 -0.075103 0.146179 0.65788 12.201285 20.603031 30.629976 56.112991 3.202147 16.515854 1.27132 0.124822 -0.304403 -0.00873 1.216415 -6.480473 6.002142 0.583843 -4.152175 0.976363 -2.99411 2.071777 0.377552 -0.084899 0.287101 0.099138 -18.873966 -6.359765 0.782293 20.634327 -4.025814 1.288604 -1.204858 0.282405 0.449207 0.084397 -0.069723 -0.025112 
0.067463 0.565768 1.583569 9.335328 -56.259964 6.490039 -0.190675 -0.129635 -0.03779 -0.943382 -0.363959 0.842305 -7.817739 -4.094477 1.734559 -0.903733 0.295843 -0.181297 0.029642 -0.067435 0.025415 0.366387 -0.182354 -14.496103 18.725716 -33.570461 -59.824986 10.568624 -16.274902 -2.259022 0.077959 0.150531 -0.08924 0.208607 0.565615 12.046695 19.771669 30.550932 55.678795 3.124806 18.199135 0.916756 0.118928 -0.308074 -0.01087 1.728436 -5.450092 5.124122 0.774817 -3.984802 1.235123 -3.231778 2.097847 0.36057 -0.117783 0.327065 0.099674 -20.389915 -5.959102 -0.244545 17.097559 -4.480382 1.909419 -1.073335 0.356024 0.5124 0.104271 -0.09217 -0.039683 
0.057249 0.567092 1.585154 10.818616 -63.837757 9.389419 -0.247338 -0.135001 -0.03458 -1.012474 -0.362993 0.879047 -7.026147 -3.577955 2.317561 -0.850453 0.298758 -0.2274 0.0252 -0.049058 0.040327 0.327389 -0.16597 -14.610362 18.572397 -33.281109 -60.712021 10.76731 -16.940638 -2.563957 0.075022 0.151147 -0.086806 0.262066 0.441795 11.934162 19.093229 31.235432 55.001255 3.343634 19.170025 1.012204 0.105592 -0.286674 -0.01015 2.066914 -4.862699 4.365662 1.10475 -3.946921 1.511251 -3.449639 2.072736 0.323392 -0.141197 0.336974 0.088208 -20.466658 -5.576653 -1.201772 13.867508 -4.638394 2.411598 -0.878566 0.354964 0.522582 0.10433 -0.100417 -0.043456 
0.043178 0.568448 1.586815 13.313682 -68.224281 12.66721 -0.325581 -0.154897 -0.013194 -1.106709 -0.354759 0.912608 -6.513669 -3.113358 2.505502 -0.792369 0.31386 -0.267867 0.024226 -0.048862 0.048952 0.322034 -0.154121 -14.73365 18.412764 -32.751228 -61.298496 10.691722 -17.382677 -2.552861 0.073975 0.15276 -0.086751 0.29292 0.342405 11.934229 18.779591 30.996164 54.832233 3.148324 19.529819 1.087428 0.087631 -0.277706 -0.012897 1.968501 -4.43155 4.098777 1.727661 -3.876992 1.561428 -3.537945 2.048846 0.295317 -0.157927 0.333294 0.08581 -20.213926 -5.393544 -1.778685 11.932527 -4.735716 2.702649 -0.753859 0.367911 0.536142 0.106898 -0.111267 -0.048305 
0.027875 0.569549 1.589003 16.654623 -71.42514 16.472744 -0.376606 -0.182874 0.015648 -1.188791 -0.349488 0.931184 -6.076489 -2.795845 2.582838 -0.736189 0.322827 -0.288969 0.023236 -0.053477 0.054564 0.321641 -0.141185 -14.831283 18.14957 -32.459476 -61.509098 10.64156 -17.605194 -2.400072 0.071563 0.151396 -0.085116 0.295098 0.251969 12.02056 18.606367 30.785334 54.866104 3.015887 19.272005 1.099283 0.063578 -0.267595 -0.015617 2.166598 -4.40862 3.984271 2.360861 -3.913646 1.562916 -3.596232 2.003447 0.262514 -0.168743 0.320422 0.084152 -19.530035 -5.364196 -2.115122 10.344091 -4.824867 2.88676 -0.62198 0.343379 0.523345 0.108373 -0.118192 -0.05356 
0.013242 0.56997 1.590711 21.799196 -73.879417 21.909899 -0.41519 -0.194726 0.054905 -1.226031 -0.327155 0.921679 -5.812582 -2.570585 2.668375 -0.690582 0.319465 -0.318144 0.023249 -0.06479 0.056487 0.326493 -0.096519 -14.886549 18.190975 -32.138535 -61.259884 10.464651 -17.854115 -2.246605 0.069691 0.149668 -0.082446 0.298171 0.113407 12.191489 18.351952 30.30183 54.939934 2.691737 18.812012 1.119925 0.050432 -0.259485 -0.016371 2.233158 -4.561954 3.84715 2.964782 -4.028913 1.56722 -3.611708 1.957126 0.240294 -0.174786 0.30176 0.081667 -19.400558 -5.415399 -2.145935 9.460538 -4.904837 2.975238 -0.492285 0.310765 0.50126 0.106784 -0.116124 -0.055164 
0.000223 0.569788 1.592553 26.538473 -75.37825 26.754206 -0.425089 -0.201925 0.095599 -1.242623 -0.3037 0.913347 -5.597646 -2.400928 2.689862 -0.63854 0.313636 -0.345522 0.023354 -0.082712 0.05643 0.342813 -0.075029 -14.911442 18.015743 -32.023361 -60.816032 10.320522 -18.062279 -2.074444 0.068952 0.149437 -0.080677 0.299083 -0.000369 12.352991 17.951324 29.840263 55.322002 2.165359 18.027266 1.113307 0.034369 -0.249665 -0.017157 2.314981 -4.763046 3.763646 3.644377 -4.156991 1.544983 -3.660577 1.902318 0.213593 -0.182274 0.283693 0.081882 -19.280943 -5.606029 -2.19667 8.897249 -5.066487 3.012164 -0.440151 0.271495 0.480426 0.106568 -0.114319 -0.057724 
-0.011049 0.569424 1.59498 31.604153 -76.671143 31.830009 -0.42856 -0.217047 0.149916 -1.271681 -0.277681 0.914639 -5.214805 -2.268389 2.581146 -0.563154 0.316653 -0.362961 0.023137 -0.111704 0.053743 0.363625 -0.064282 -14.972914 17.412876 -31.925127 -60.356537 9.968081 -18.228971 -1.89831 0.071171 0.15445 -0.082941 0.290985 -0.078154 12.517179 17.22505 29.629425 55.972961 1.524217 16.992998 1.145596 0.01056 -0.242517 -0.019113 1.725445 -4.778924 3.537898 5.065993 -4.266279 1.533188 -3.699972 1.797539 0.160745 -0.191175 0.274197 0.087415 -19.111359 -5.852201 -2.316298 8.65107 -5.377052 3.098095 -0.542994 0.221061 0.470988 0.112746 -0.12377 -0.066407 
-0.02352 0.568985 1.597754 36.32008 -77.314461 36.436699 -0.420806 -0.23793 0.183 -1.29159 -0.261583 0.905159 -4.862995 -2.232447 2.43565 -0.500686 0.312355 -0.364726 0.017867 -0.137926 0.05658 0.381617 -0.037531 -15.010509 16.728605 -31.93844 -59.865665 9.611854 -18.184172 -1.81908 0.072793 0.153685 -0.083536 0.277163 -0.076098 12.687449 16.52618 29.533649 56.69701 0.790306 15.784456 1.248088 -0.006263 -0.234453 -0.020522 1.07508 -4.797251 3.333986 6.662508 -4.341027 1.489596 -3.780684 1.6957 0.110712 -0.204928 0.263168 0.093948 -18.998278 -6.12086 -2.456001 8.857275 -5.738193 3.228108 -0.719549 0.168873 0.452752 0.11844 -0.13086 -0.075266 
